#!OML:ASF H:\Terrain\Patient Classification 1\Takeo\Monday\TakeoMonday.ASF
:FULLY-SPECIFIED
:DEGREES
229
root 9.85794 17.2835 9.62576 -5.29577 3.69068 -2.68294
lowerback 6.3443 -2.19142 1.81317
upperback 1.69504 -2.75132 2.24374
thorax -1.78092 -1.37692 1.50555
lowerneck -10.5239 3.43274 -0.0329039
upperneck 4.32319 4.75698 -2.40083
head 3.32222 2.25429 -0.489358
rclavicle -8.49804e-015 -3.57812e-015
rhumerus -42.4162 -22.3785 -72.5326
rradius 14.5222
rwrist 3.53718
rhand -20.5608 16.8832
rfingers 7.12502
rthumb 5.79836 -13.0175
lclavicle -8.49804e-015 -3.57812e-015
lhumerus -34.4522 6.77127 87.7248
lradius 33.2998
lwrist 21.5637
lhand -19.8403 20.1654
lfingers 7.12502
lthumb 6.49399 50.0459
rfemur -16.1214 6.44587 28.0225
rtibia 36.6277
rfoot -16.7473 -11.4547
rtoes 6.04436
lfemur -2.57717 2.74777 -18.253
ltibia 68.3481
lfoot 13.8524 15.9822
ltoes -17.1924
230
root 9.86324 17.3098 9.79894 -5.61433 3.42864 -2.78359
lowerback 6.42754 -2.10142 1.97216
upperback 1.93581 -2.62571 2.22324
thorax -1.58871 -1.31369 1.38305
lowerneck -10.3538 3.2985 -0.0525779
upperneck 4.02389 4.57742 -2.48992
head 3.18539 2.16616 -0.531402
rclavicle 2.94201e-014 1.98785e-015
rhumerus -41.0466 -21.7811 -73.7667
rradius 15.201
rwrist 2.64973
rhand -21.2138 17.3072
rfingers 7.12502
rthumb 5.16794 -12.6098
lclavicle 2.94201e-014 1.98785e-015
lhumerus -34.0802 8.41533 87.0504
lradius 30.842
lwrist 20.2308
lhand -18.9292 20.6183
lfingers 7.12502
lthumb 7.37351 50.4698
rfemur -14.951 6.22602 28.2947
rtibia 36.4049
rfoot -17.0552 -11.1826
rtoes 5.38642
lfemur -3.59424 2.99658 -18.2149
ltibia 69.6288
lfoot 11.5483 17.4714
ltoes -14.3466
231
root 9.87629 17.3364 9.97629 -5.89285 3.43013 -2.16325
lowerback 6.48466 -2.04675 1.51038
upperback 2.13517 -2.59096 1.96107
thorax -1.40752 -1.29565 1.36578
lowerneck -10.0913 3.15206 -0.182009
upperneck 3.66714 4.37905 -2.36802
head 3.00227 2.07695 -0.487902
rclavicle 4.72114e-016 3.18055e-015
rhumerus -39.6598 -20.6888 -75.226
rradius 15.9837
rwrist 1.53867
rhand -21.3521 16.372
rfingers 7.12502
rthumb 5.03436 -13.5482
lclavicle 4.72114e-016 3.18055e-015
lhumerus -33.9151 10.1796 86.26
lradius 28.4761
lwrist 18.6189
lhand -18.5823 21.0906
lfingers 7.12502
lthumb 7.70835 50.9301
rfemur -13.7274 5.75231 27.6766
rtibia 36.1922
rfoot -17.5743 -10.7271
rtoes 5.75643
lfemur -4.43638 2.93826 -19.1361
ltibia 70.5421
lfoot 8.98491 18.844
ltoes -11.7978
232
root 9.88577 17.3529 10.1341 -6.01614 3.20763 -1.91809
lowerback 6.5733 -1.9746 1.45987
upperback 2.22076 -2.50147 1.74912
thorax -1.37716 -1.25041 1.17071
lowerneck -9.93147 3.12858 -0.303779
upperneck 3.66527 4.33713 -1.98687
head 2.95653 2.07053 -0.348235
rclavicle -1.19892e-014 -1.19271e-014
rhumerus -38.1282 -19.2158 -76.9369
rradius 16.3947
rwrist 0.14577
rhand -21.5746 15.9334
rfingers 7.12502
rthumb 4.81954 -13.9918
lclavicle -1.19892e-014 -1.19271e-014
lhumerus -34.0863 11.8923 85.3038
lradius 26.6008
lwrist 17.2983
lhand -19.2262 20.5406
lfingers 7.12502
lthumb 7.0868 50.4019
rfemur -12.7935 5.56706 27.5013
rtibia 35.9814
rfoot -17.8822 -10.4443
rtoes 5.42072
lfemur -5.62561 3.12573 -19.5607
ltibia 71.3214
lfoot 6.95945 19.2991
ltoes -12.0293
233
root 9.8852 17.3697 10.291 -6.0066 2.7065 -1.86147
lowerback 6.52646 -1.79623 1.50351
upperback 2.26098 -2.26649 1.59354
thorax -1.3199 -1.13252 0.965828
lowerneck -9.83671 3.04133 -0.263167
upperneck 3.77479 4.20781 -1.84009
head 2.97205 2.0123 -0.315753
rclavicle 9.41742e-015 0
rhumerus -36.6716 -17.8889 -78.5167
rradius 16.6839
rwrist -1.2513
rhand -21.9626 16.7242
rfingers 7.12502
rthumb 4.44486 -13.2091
lclavicle 9.41742e-015 0
lhumerus -34.3777 13.5289 84.2503
lradius 24.9796
lwrist 16.2112
lhand -19.8084 20.3808
lfingers 7.12502
lthumb 6.5248 50.2603
rfemur -11.9854 5.81226 27.6044
rtibia 35.6997
rfoot -18.1336 -10.3358
rtoes 3.19289
lfemur -7.06728 3.47605 -19.6335
ltibia 72.0101
lfoot 4.69798 19.4695
ltoes -9.91312
234
root 9.8828 17.3884 10.4495 -6.04811 2.19566 -1.72996
lowerback 6.67418 -1.59182 1.34312
upperback 2.22572 -2.00159 1.52559
thorax -1.43665 -1.00068 0.970968
lowerneck -9.7681 2.87461 -0.383385
upperneck 3.83827 3.99641 -1.76483
head 2.97427 1.90816 -0.283038
rclavicle 6.92019e-015 -9.14409e-015
rhumerus -35.5494 -16.6186 -79.7072
rradius 17.4303
rwrist -2.09701
rhand -21.8609 16.5094
rfingers 7.12502
rthumb 4.54311 -13.4219
lclavicle 6.92019e-015 -9.14409e-015
lhumerus -34.8863 15.4915 83.0593
lradius 23.368
lwrist 14.6562
lhand -19.2495 21.474
lfingers 7.12502
lthumb 7.06434 51.3362
rfemur -11.0593 6.18899 27.6193
rtibia 35.2134
rfoot -18.2974 -10.2423
rtoes 1.63632
lfemur -8.40543 3.7257 -19.7888
ltibia 72.5607
lfoot 2.96064 19.2336
ltoes -7.62534
